<svg width="319" height="66" xmlns="http://www.w3.org/2000/svg">

 <g>
  <title>Layer 1</title>
  <path id="svg_1" fill-rule="evenodd" fill="#ffffff" d="m65.59529,32.79694a32.8487,32.8487 0 0 0 -32.83719,-32.83308l-32.83226,0l0,32.83308a32.83308,32.83308 0 1 0 65.66945,0z"/>
  <path id="svg_2" fill="#ffffff" d="m80.84336,44.80394l14.627,0l0,7.232l-22.184,0l0,-38.354l7.56,0l-0.003,31.122z"/>
  <path id="svg_3" fill="#ffffff" d="m99.76536,13.68194l7.56,0l0,38.35l-7.56,0l0,-38.35z"/>
  <path id="svg_4" fill="#ffffff" d="m152.50136,32.85694a19.2,19.2 0 0 1 -4.712,12.934l3.945,4.109l-5.371,4.762l-4.164,-4.328a19.529,19.529 0 0 1 -9.636,2.465a19.737,19.737 0 0 1 -19.892,-19.942a19.121,19.121 0 0 1 5.807,-14.134a19.972,19.972 0 0 1 28.16,0a19.033,19.033 0 0 1 5.863,14.134zm-19.938,12.546a13.443,13.443 0 0 0 4.273,-0.712l-6.3,-6.574l5.369,-4.766l6.739,7.012a12.768,12.768 0 0 0 2.3,-7.506a12.247,12.247 0 0 0 -3.561,-9.039a12.7,12.7 0 0 0 -17.641,0a12.248,12.248 0 0 0 -3.561,9.039a12.18,12.18 0 0 0 3.561,8.985a11.979,11.979 0 0 0 8.821,3.561z"/>
  <path id="svg_5" fill="#ffffff" d="m172.11236,52.79894a15.335,15.335 0 0 1 -10.518,-3.616a12.271,12.271 0 0 1 -4.109,-9.7l0,-25.8l7.505,0l0,25.2a6.56,6.56 0 0 0 1.7,4.766q1.754,1.753 5.424,1.753t5.37,-1.753a6.445,6.445 0 0 0 1.752,-4.766l0,-25.2l7.561,0l0,25.8a12.271,12.271 0 0 1 -4.109,9.7a15.416,15.416 0 0 1 -10.576,3.616z"/>
  <path id="svg_6" fill="#ffffff" d="m193.60736,13.68194l7.56,0l0,38.35l-7.56,0l0,-38.35z"/>
  <path id="svg_7" fill="#ffffff" d="m223.49736,13.68194a17.388,17.388 0 0 1 13.147,5.533a18.935,18.935 0 0 1 5.314,13.641a18.935,18.935 0 0 1 -5.314,13.642a17.388,17.388 0 0 1 -13.147,5.533l-15.231,0l0,-38.349l15.231,0zm0,31.118a10.675,10.675 0 0 0 8.107,-3.287a12.17,12.17 0 0 0 3.122,-8.656a11.974,11.974 0 0 0 -3.122,-8.6a10.587,10.587 0 0 0 -8.107,-3.342l-7.671,0l0,23.889l7.671,-0.004z"/>
  <path id="svg_8" fill="#2e2e2e" d="m247.64902,35.53137a4.94701,5.23401 0 0 1 4.82363,-4.62115l62.376,0a3.89631,4.12235 0 0 1 3.95475,4.62115l-1.18318,12.61096a4.94766,5.2347 0 0 1 -4.82363,4.62115l-62.37859,0a3.89631,4.12235 0 0 1 -3.95475,-4.62115l1.18578,-12.61096z"/>
  <path stroke-width="0" id="svg_9" fill="#ffffff" d="m260.93439,41.80772a2.52647,2.52647 0 0 1 1.34403,2.33766a2.74727,2.74727 0 0 1 -0.92082,2.13286a3.24808,3.24808 0 0 1 -2.26406,0.83282l-4.33931,0l0,-10.22746l4.0321,0a3.13768,3.13768 0 0 1 2.20646,0.81842a2.62807,2.62807 0 0 1 0.90562,2.06005a2.49206,2.49206 0 0 1 -0.96402,2.04565zm-2.14806,-3.04008l-2.01525,0l0,2.24966l2.01525,0a1.02323,1.02323 0 0 0 0.77442,-0.32001a1.08803,1.08803 0 0 0 0.32001,-0.80002a1.12003,1.12003 0 0 0 -0.30721,-0.80002a1.04003,1.04003 0 0 0 -0.78722,-0.32881l0,-0.0008zm0.30721,6.45777a1.14963,1.14963 0 0 0 0.84722,-0.33601a1.21603,1.21603 0 0 0 0.33681,-0.88002a1.14803,1.14803 0 0 0 -0.33681,-0.84722a1.12563,1.12563 0 0 0 -0.84722,-0.35041l-2.32006,0l0,2.41046l2.32006,0.0032z"/>
  <path stroke-width="0" id="svg_10" fill="#ffffff" d="m272.20508,45.78063a5.32494,5.32494 0 1 1 0,-7.55299a5.37774,5.37774 0 0 1 0,7.55299zm-6.12176,-1.37364a3.42729,3.42729 0 0 0 4.70572,0a3.53609,3.53609 0 0 0 0,-4.82092a3.38969,3.38969 0 0 0 -4.70572,0a3.53609,3.53609 0 0 0 0,4.82092z"/>
  <path stroke-width="0" id="svg_11" fill="#ffffff" d="m278.91165,47.31507a4.08811,4.08811 0 0 1 -2.80487,-0.96402a3.27368,3.27368 0 0 1 -1.09603,-2.58567l0,-6.88018l2.00005,0l0,6.72017a1.75125,1.75125 0 0 0 0.45281,1.27123a1.97125,1.97125 0 0 0 1.44644,0.46721a1.92005,1.92005 0 0 0 1.43124,-0.46721a1.71524,1.71524 0 0 0 0.46801,-1.27123l0,-6.72017l2.01605,0l0,6.88018a3.27368,3.27368 0 0 1 -1.09603,2.58567a4.11051,4.11051 0 0 1 -2.81767,0.96402z"/>
  <path stroke-width="0" id="svg_12" fill="#ffffff" d="m290.56155,36.8836l2.01525,0l0,10.22666l-1.53444,0l-4.38251,-6.25296l0,6.25296l-2.01685,0l0,-10.22666l1.53444,0l4.38411,6.24016l0,-6.24016z"/>
  <path stroke-width="0" id="svg_13" fill="#ffffff" d="m299.32498,47.31506a5.11453,5.11453 0 0 1 -3.8137,-1.53444a5.51054,5.51054 0 0 1 0,-7.5682a5.42574,5.42574 0 0 1 6.36976,-0.88002a4.68972,4.68972 0 0 1 1.84005,1.75285l-1.73844,1.00803a2.65767,2.65767 0 0 0 -1.08163,-1.06643a3.16328,3.16328 0 0 0 -1.57764,-0.39441a3.23448,3.23448 0 0 0 -2.41126,0.93522a3.68009,3.68009 0 0 0 0,4.83612a3.53449,3.53449 0 0 0 3.9889,0.55521a2.65367,2.65367 0 0 0 1.08163,-1.06643l1.73844,1.00803a4.82892,4.82892 0 0 1 -1.82645,1.76805a5.25134,5.25134 0 0 1 -2.56967,0.64642z"/>
  <path stroke-width="0" id="svg_14" fill="#ffffff" d="m306.97717,45.18541l4.31291,0l0,1.92805l-6.32656,0l0,-10.22986l6.24656,0l0,1.92805l-4.24011,0l0,2.17686l3.8713,0l0,1.89925l-3.8713,0l0.0072,2.29766z"/>
 </g>
</svg>